<svg width="14" height="24" viewBox="0 0 14 24" fill="none" xmlns="http://www.w3.org/2000/svg">
<path d="M5.10248 16.8689C5.12264 15.6689 5.25857 14.7206 5.51076 14.0245C5.76295 13.3284 6.27764 12.5569 7.05436 11.7094L9.0367 9.66657C9.88373 8.70845 10.3075 7.67954 10.3075 6.57985C10.3075 5.52095 10.03 4.69126 9.47545 4.09079C8.92045 3.49079 8.11373 3.19079 7.05436 3.19079C6.02545 3.19079 5.1981 3.46313 4.57279 4.00782C3.94748 4.55251 3.63482 5.28376 3.63482 6.20157H0.835449C0.855605 4.56751 1.43826 3.24845 2.58295 2.24485C3.7281 1.24126 5.21826 0.739227 7.05436 0.739227C8.96076 0.739227 10.4462 1.2511 11.5103 2.27532C12.5748 3.29907 13.1069 4.70391 13.1069 6.48938C13.1069 8.25423 12.2898 9.9947 10.6558 11.7094L9.00623 13.3434C8.26982 14.1605 7.90185 15.3356 7.90185 16.8689H5.10248ZM4.98154 21.6656C4.98154 21.2119 5.12029 20.8308 5.39732 20.5233C5.67482 20.2158 6.08592 20.0616 6.6306 20.0616C7.17529 20.0616 7.5892 20.2158 7.87139 20.5233C8.15404 20.8308 8.29514 21.2119 8.29514 21.6656C8.29514 22.1199 8.15404 22.4953 7.87139 22.793C7.5892 23.0906 7.17529 23.2392 6.6306 23.2392C6.08592 23.2392 5.67482 23.0906 5.39732 22.793C5.12029 22.4953 4.98154 22.1199 4.98154 21.6656Z" fill="black"/>
</svg>
